Depois de tentar viver pacatamente e sempre sair perdendo, o vaqueiro João de Deus aceita as regras do jogo: seu avô Cansanção 'fecha' seu corpo e ele se emprega como jagunço do 'coronel' Trajano. Após um 'serviço' para o coronel, João de Deus apaixona-se por Dinorá, sobrinha do fazendeiro, que a mantém misteriosamente recolhida à casa grande. Raptando-a certa noite, foge com ela para o norte do sertão.

LANGUAGE: Portuguese
NO SUBS
  
http://www.imdb.com/title/tt0296671

General 
Unique ID : 60803220104761092310106748626161236397 (0x2DBE463408FCD90F533C8486E431F9AD) 
Complete name : O.Homem.do.Corpo.Fechado.1973.DVDRip.x264.mkv 
Format : Matroska 
Format version : Version 2 
File size : 1.30 GiB 
Duration : 1h 26mn 
Overall bit rate : 2 167 Kbps 
Writing application : HandBrake 0.9.8 
Writing library : libmkv 0.6.5 

Video 
ID : 1 
Format : AVC 
Format/Info : Advanced Video Codec 
Format profile : High@L3.1 
Format settings, CABAC : Yes 
Format settings, ReFrames : 11 frames 
Codec ID : V_MPEG4/ISO/AVC 
Duration : 1h 26mn 
Bit rate : 1 900 Kbps 
Width : 718 pixels 
Height : 480 pixels 
Display aspect ratio : 4:3 
Original display aspect ratio : 4:3 
Frame rate : 23.976 fps 
Color space : YUV 
Chroma subsampling : 4:2:0 
Bit depth : 8 bits 
Scan type : Progressive 
Bits/(Pixel*Frame) : 0.230 
Stream size : 1.14 GiB (88%) 
Writing library : x264 core 120 
Encoding settings : cabac=1 / ref=11 / deblock=1:-3:-3 / analyse=0x3:0x133 / me=umh / subme=11 / psy=1 / psy_rd=0.90:0.00 / mixed_ref=1 / me_range=32 / chroma_me=1 / trellis=2 / 8x8dct=1 / cqm=0 / deadzone=21,11 / fast_pskip=0 / chroma_qp_offset=-2 / threads=4 / sliced_threads=0 / nr=0 / decimate=1 / interlaced=0 / bluray_compat=0 / constrained_intra=0 / bframes=9 / b_pyramid=2 / b_adapt=2 / b_bias=0 / direct=3 / weightb=1 / open_gop=0 / weightp=2 / keyint=240 / keyint_min=24 / scenecut=40 / intra_refresh=0 / rc_lookahead=60 / rc=crf / mbtree=1 / crf=19.0 / qcomp=0.60 / qpmin=3 / qpmax=69 / qpstep=4 / ip_ratio=1.40 / aq=2:0.90 
Language : English 
Default : Yes 
Forced : No 
Color primaries : BT.601-6 525, BT.1358 525, BT.1700 NTSC, SMPTE 170M 
Transfer characteristics : BT.709-5, BT.1361 
Matrix coefficients : BT.601-6 525, BT.1358 525, BT.1700 NTSC, SMPTE 170M 

Audio 
ID : 2 
Format : AC-3 
Format/Info : Audio Coding 3 
Mode extension : CM (complete main) 
Format settings, Endianness : Big 
Codec ID : A_AC3 
Duration : 1h 26mn 
Bit rate mode : Constant 
Bit rate : 224 Kbps 
Channel(s) : 2 channels 
Channel positions : Front: L R 
Sampling rate : 48.0 KHz 
Bit depth : 16 bits 
Compression mode : Lossy 
Stream size : 138 MiB (10%) 
Language : Portuguese 
Default : Yes 
Forced : No 

Menu 
00:00:00.000 : Chapter 1 
00:09:54.510 : Chapter 2 
00:20:19.801 : Chapter 3 
00:31:34.684 : Chapter 4 
00:40:11.575 : Chapter 5 
00:49:56.868 : Chapter 6 
01:02:10.226 : Chapter 7 
01:14:06.442 : Chapter 8 

My rip.